<?xml version="1.0" standalone="no"?><!DOCTYPE svg PUBLIC "-//W3C//DTD SVG 1.1//EN" "http://www.w3.org/Graphics/SVG/1.1/DTD/svg11.dtd"><svg t="1506873238343" class="icon" style="" viewBox="0 0 1024 1024" version="1.1" xmlns="http://www.w3.org/2000/svg" p-id="5003" xmlns:xlink="http://www.w3.org/1999/xlink" width="128" height="128"><defs><style type="text/css"></style></defs><path d="M860.204926 81.305951L814.555976 126.954901v48.809061l45.64895-45.646569zM893.882607 163.795074l-45.646569 45.646569h48.809061l45.646569-45.646569z" fill="#6ECCAE" p-id="5004"></path><path d="M177.53772 610.458945c0 130.133682 105.872035 236.003335 236.005717 236.003335s236.005717-105.872035 236.005717-236.003335c0-56.508109-19.972755-108.434415-53.214641-149.111015l-58.625169 58.625169c18.565351 25.407098 29.560249 56.67957 29.56025 90.483464 0 84.763355-68.960421 153.723775-153.723776 153.723776-84.763355 0-153.723775-68.960421-153.723775-153.723776 0-84.763355 68.960421-153.723775 153.723775-153.723775 33.806276 0 65.078748 10.994898 90.483464 29.560249l58.625169-58.625169c-40.676599-33.244267-92.602905-53.214641-149.111014-53.21464-130.136063 0-236.005717 105.872035-236.005717 236.005717z" fill="#FFFFFF" p-id="5005"></path><path d="M688.439707 369.237974l-58.310825 58.310825c41.800617 49.418698 67.04578 113.266265 67.04578 182.907764 0 156.3957-127.237906 283.631225-283.633607 283.631225S129.907449 766.849882 129.907449 610.456563c0-156.3957 127.237906-283.633606 283.633606-283.633606 69.6415 0 133.489067 25.245163 182.907765 67.04578l58.310825-58.310825c-64.45006-56.624798-148.889545-91.014515-241.220971-91.014515C211.77741 244.545778 47.627889 408.692917 47.627889 610.458945S211.77741 976.372111 413.541055 976.372111 779.454222 812.22259 779.454222 610.458945c0-92.331426-34.389717-176.770911-91.014515-241.220971z" fill="#FFFFFF" p-id="5006"></path><path d="M413.541055 326.825338c-156.3957 0-283.633606 127.237906-283.633606 283.633607s127.237906 283.631225 283.633606 283.631224 283.633606-127.237906 283.633607-283.631224c0-69.643881-25.245163-133.489067-67.04578-182.907765l-33.799132 33.799132c33.244267 40.676599 53.214641 92.602905 53.214641 149.111014 0 130.133682-105.869654 236.003335-236.005717 236.003335S177.532957 740.592626 177.532957 610.461326s105.872035-236.005717 236.005717-236.005717c56.508109 0 108.434415 19.970374 149.111014 53.214641l33.799132-33.799132c-49.416316-41.800617-113.263883-67.04578-182.907765-67.04578z" fill="#E85512" p-id="5007"></path><path d="M307.447551 610.458945c0 58.501336 47.59455 106.095886 106.095886 106.095886s106.095886-47.592168 106.095886-106.095886a105.433858 105.433858 0 0 0-16.186338-56.229486l-73.068327 73.068326a23.747266 23.747266 0 0 1-16.83884 6.975104 23.742503 23.742503 0 0 1-16.83884-6.975104c-9.299345-9.299345-9.299345-24.378335 0-33.680062l73.068326-73.068326a105.433858 105.433858 0 0 0-56.229486-16.186339c-58.506099 0-106.098267 47.592168-106.098267 106.095887z" fill="#E85512" p-id="5008"></path><path d="M1022.187378 130.867532A23.816326 23.816326 0 0 0 1000.185674 116.167184h-92.352858V23.814326a23.813945 23.813945 0 0 0-40.652785-16.838841L773.905573 100.249944a23.821089 23.821089 0 0 0-6.975105 16.83884v106.303067l-78.235952 78.235953c-75.795023-67.683993-172.593945-104.709915-275.153461-104.709915-110.546712 0-214.418376 42.993696-292.482867 121.058188C42.993696 396.040569 0 499.912232 0 610.458945s42.993696 214.418376 121.058188 292.482867C199.122679 981.006304 302.994343 1024 413.541055 1024s214.418376-42.993696 292.482868-121.058188c78.064492-78.064492 121.058188-181.936156 121.058188-292.482867 0-102.559515-37.028303-199.358437-104.712296-275.151079l78.238334-78.238334h106.300686c6.315458 0 12.373726-2.50999 16.83884-6.975105l93.27684-93.274458a23.813945 23.813945 0 0 0 5.162863-25.952437zM413.541055 976.372111C211.77741 976.372111 47.627889 812.22259 47.627889 610.458945S211.77741 244.545778 413.541055 244.545778c92.331426 0 176.76853 34.389717 241.220971 91.014515l-58.310825 58.310825-33.799131 33.799132-58.625169 58.625169c-25.404716-18.565351-56.67957-29.560249-90.483464-29.56025-84.763355 0-153.723775 68.960421-153.723776 153.723776 0 84.763355 68.960421 153.723775 153.723776 153.723775 84.763355 0 153.723775-68.960421 153.723775-153.723775 0-33.806276-10.994898-65.078748-29.560249-90.483464l58.625169-58.625169 33.799131-33.799132 58.310825-58.310825c56.624798 64.45006 91.014515 148.889545 91.014515 241.220971C779.454222 812.22259 615.307083 976.372111 413.541055 976.372111z m-16.83884-382.754388c-9.299345 9.299345-9.299345 24.378335 0 33.680062a23.747266 23.747266 0 0 0 16.83884 6.975104 23.742503 23.742503 0 0 0 16.838841-6.975104l73.068326-73.068326a105.433858 105.433858 0 0 1 16.186338 56.229486c0 58.501336-47.59455 106.095886-106.095886 106.095886s-106.095886-47.592168-106.095886-106.095886 47.59455-106.095886 106.095886-106.095887a105.433858 105.433858 0 0 1 56.229486 16.186339l-73.065945 73.068326zM848.236038 209.441643l45.646569-45.646569h48.809061l-45.646569 45.646569h-48.809061zM814.555976 126.954901l45.646569-45.64895v48.811442L814.555976 175.763962V126.954901z" fill="" p-id="5009"></path></svg>